<?xml version="1.0" encoding="UTF-8" standalone="no"?>
<!-- Created with Inkscape (http://www.inkscape.org/) -->

<svg
   width="29.021078mm"
   height="8.433671mm"
   viewBox="0 0 29.021078 8.433671"
   version="1.1"
   id="svg5"
   inkscape:version="1.2.2 (b0a8486541, 2022-12-01)"
   sodipodi:docname="logo_pathed.svg"
   xmlns:inkscape="http://www.inkscape.org/namespaces/inkscape"
   xmlns:sodipodi="http://sodipodi.sourceforge.net/DTD/sodipodi-0.dtd"
   xmlns="http://www.w3.org/2000/svg"
   xmlns:svg="http://www.w3.org/2000/svg">
  <sodipodi:namedview
     id="namedview7"
     pagecolor="#ffffff"
     bordercolor="#999999"
     borderopacity="1"
     inkscape:showpageshadow="0"
     inkscape:pageopacity="0"
     inkscape:pagecheckerboard="0"
     inkscape:deskcolor="#d1d1d1"
     inkscape:document-units="mm"
     showgrid="false"
     inkscape:zoom="8.516629"
     inkscape:cx="36.986465"
     inkscape:cy="6.8102063"
     inkscape:window-width="1866"
     inkscape:window-height="1011"
     inkscape:window-x="54"
     inkscape:window-y="32"
     inkscape:window-maximized="1"
     inkscape:current-layer="text113" />
  <defs
     id="defs2" />
  <g
     inkscape:label="Layer 1"
     inkscape:groupmode="layer"
     id="layer1"
     transform="translate(-31.296834,-45.054407)">
    <g
       aria-label="Shimmer Math Labs"
       id="text113"
       style="font-size:3.175px;stroke-width:0.264583">
      <g
         id="g529"
         inkscape:export-filename="logo.png"
         inkscape:export-xdpi="600"
         inkscape:export-ydpi="600">
        <path
           d="m 32.701771,46.545079 q -0.01905,0.03334 -0.04127,0.04921 -0.02064,0.01429 -0.05239,0.01429 -0.03334,0 -0.07303,-0.02381 -0.0381,-0.0254 -0.09208,-0.05556 -0.05398,-0.03016 -0.127,-0.05398 -0.07144,-0.0254 -0.169862,-0.0254 -0.0889,0 -0.155575,0.02222 -0.06668,0.02064 -0.112713,0.05874 -0.04445,0.0381 -0.06668,0.09208 -0.02222,0.05239 -0.02222,0.115887 0,0.08096 0.04445,0.134938 0.04604,0.05398 0.12065,0.09208 0.07461,0.0381 0.169863,0.06826 0.09525,0.03016 0.195262,0.06509 0.100013,0.03334 0.195263,0.07937 0.09525,0.04445 0.169862,0.1143 0.07461,0.06826 0.119063,0.168275 0.04604,0.100012 0.04604,0.242887 0,0.155575 -0.05397,0.2921 -0.05239,0.134938 -0.155575,0.236538 -0.1016,0.100012 -0.249237,0.15875 -0.147638,0.05715 -0.338138,0.05715 -0.109537,0 -0.2159,-0.02222 -0.106362,-0.02064 -0.204787,-0.06033 -0.09684,-0.03969 -0.182563,-0.09525 -0.08573,-0.05556 -0.1524,-0.123825 l 0.125413,-0.204788 q 0.01587,-0.02222 0.04127,-0.03651 0.0254,-0.01588 0.05398,-0.01588 0.03969,0 0.08573,0.03334 0.04604,0.03175 0.109537,0.07144 0.0635,0.03969 0.147638,0.07303 0.08573,0.03175 0.204787,0.03175 0.182563,0 0.282575,-0.08572 0.100013,-0.08731 0.100013,-0.249238 0,-0.09049 -0.04604,-0.147637 -0.04445,-0.05715 -0.119062,-0.09525 -0.07461,-0.03969 -0.169863,-0.06667 -0.09525,-0.02699 -0.193675,-0.05874 -0.09842,-0.03175 -0.193675,-0.0762 -0.09525,-0.04445 -0.169862,-0.115887 -0.07461,-0.07144 -0.12065,-0.1778 -0.04445,-0.10795 -0.04445,-0.265113 0,-0.125412 0.04921,-0.244475 0.0508,-0.119062 0.14605,-0.211137 0.09525,-0.09207 0.23495,-0.147638 0.1397,-0.05556 0.320675,-0.05556 0.2032,0 0.37465,0.0635 0.17145,0.0635 0.2921,0.1778 z"
           style="font-weight:bold;font-family:Lato;-inkscape-font-specification:'Lato, Bold'"
           id="path512" />
        <path
           d="m 33.136746,48.423092 v -2.359025 h 0.392112 v 0.906462 q 0.09525,-0.09049 0.20955,-0.14605 0.1143,-0.05556 0.268288,-0.05556 0.13335,0 0.236537,0.04604 0.103188,0.04445 0.17145,0.127 0.06985,0.08096 0.104775,0.195263 0.03651,0.112712 0.03651,0.249237 v 1.036638 h -0.392113 v -1.036638 q 0,-0.149225 -0.06826,-0.230187 -0.06826,-0.08255 -0.207963,-0.08255 -0.1016,0 -0.1905,0.04604 -0.0889,0.04604 -0.168275,0.125413 V 48.4231 Z"
           style="font-weight:bold;font-family:Lato;-inkscape-font-specification:'Lato, Bold'"
           id="path509" />
        <path
           d="m 35.333843,46.794317 v 1.628775 h -0.3937 v -1.628775 z m 0.05398,-0.474663 q 0,0.0508 -0.02064,0.09525 -0.02064,0.04445 -0.05556,0.07779 -0.03334,0.03334 -0.07938,0.05398 -0.04604,0.01905 -0.09842,0.01905 -0.0508,0 -0.09684,-0.01905 -0.04445,-0.02064 -0.07779,-0.05398 -0.03334,-0.03334 -0.05398,-0.07779 -0.01905,-0.04445 -0.01905,-0.09525 0,-0.05239 0.01905,-0.09842 0.02064,-0.04604 0.05398,-0.07937 0.03334,-0.03334 0.07779,-0.05239 0.04604,-0.02064 0.09684,-0.02064 0.05239,0 0.09842,0.02064 0.04604,0.01905 0.07938,0.05239 0.03492,0.03334 0.05556,0.07937 0.02064,0.04604 0.02064,0.09842 z"
           style="font-weight:bold;font-family:Lato;-inkscape-font-specification:'Lato, Bold'"
           id="path506" />
        <path
           d="m 35.733892,48.423092 v -1.628775 h 0.239713 q 0.0762,0 0.100012,0.07144 l 0.0254,0.12065 q 0.04286,-0.04763 0.0889,-0.08731 0.04763,-0.03969 0.100013,-0.06826 0.05397,-0.02858 0.1143,-0.04445 0.06191,-0.01746 0.134937,-0.01746 0.153988,0 0.252413,0.08414 0.100012,0.08255 0.149225,0.220663 0.0381,-0.08096 0.09525,-0.138113 0.05715,-0.05874 0.125412,-0.09525 0.06826,-0.03651 0.144463,-0.05398 0.07779,-0.01746 0.155575,-0.01746 0.134937,0 0.239712,0.04127 0.104775,0.04127 0.176213,0.12065 0.07144,0.07937 0.10795,0.193675 0.0381,0.1143 0.0381,0.261937 v 1.036638 h -0.392113 v -1.036638 q 0,-0.155575 -0.06826,-0.233362 -0.06826,-0.07937 -0.200025,-0.07937 -0.06032,0 -0.112713,0.02064 -0.0508,0.02064 -0.09049,0.06032 -0.0381,0.0381 -0.06032,0.09684 -0.02222,0.05874 -0.02222,0.134937 v 1.036638 h -0.3937 v -1.036638 q 0,-0.163512 -0.06667,-0.238125 -0.06509,-0.07461 -0.192088,-0.07461 -0.08572,0 -0.160337,0.04286 -0.07303,0.04127 -0.136525,0.1143 v 1.192213 z"
           style="font-weight:bold;font-family:Lato;-inkscape-font-specification:'Lato, Bold'"
           id="path503" />
        <path
           d="m 38.392954,48.423092 v -1.628775 h 0.239712 q 0.0762,0 0.100013,0.07144 l 0.0254,0.12065 q 0.04286,-0.04763 0.0889,-0.08731 0.04763,-0.03969 0.100012,-0.06826 0.05398,-0.02858 0.1143,-0.04445 0.06191,-0.01746 0.134938,-0.01746 0.153987,0 0.252412,0.08414 0.100013,0.08255 0.149225,0.220663 0.0381,-0.08096 0.09525,-0.138113 0.05715,-0.05874 0.125413,-0.09525 0.06826,-0.03651 0.144462,-0.05398 0.07779,-0.01746 0.155575,-0.01746 0.134938,0 0.239713,0.04127 0.104775,0.04127 0.176212,0.12065 0.07144,0.07937 0.10795,0.193675 0.0381,0.1143 0.0381,0.261937 v 1.036638 h -0.392112 v -1.036638 q 0,-0.155575 -0.06826,-0.233362 -0.06826,-0.07937 -0.200025,-0.07937 -0.06033,0 -0.112712,0.02064 -0.0508,0.02064 -0.09049,0.06032 -0.0381,0.0381 -0.06032,0.09684 -0.02222,0.05874 -0.02222,0.134937 v 1.036638 h -0.3937 v -1.036638 q 0,-0.163512 -0.06667,-0.238125 -0.06509,-0.07461 -0.192087,-0.07461 -0.08573,0 -0.160338,0.04286 -0.07303,0.04127 -0.136525,0.1143 v 1.192213 z"
           style="font-weight:bold;font-family:Lato;-inkscape-font-specification:'Lato, Bold'"
           id="path500" />
        <path
           d="m 41.745752,46.768917 q 0.153987,0 0.284162,0.04921 0.130175,0.04921 0.223838,0.144463 0.09366,0.09366 0.14605,0.231775 0.05398,0.136525 0.05398,0.312737 0,0.0889 -0.01905,0.12065 -0.01905,0.03016 -0.07303,0.03016 h -1.008063 q 0.0095,0.125412 0.04445,0.217487 0.03493,0.09049 0.09208,0.150813 0.05715,0.05874 0.134938,0.0889 0.07937,0.02858 0.174625,0.02858 0.09525,0 0.163512,-0.02222 0.06985,-0.02223 0.12065,-0.04921 0.05239,-0.02699 0.09049,-0.04921 0.03969,-0.02222 0.0762,-0.02222 0.04921,0 0.07303,0.03651 l 0.112712,0.142875 q -0.06509,0.0762 -0.14605,0.128588 -0.08096,0.0508 -0.169862,0.08255 -0.08731,0.03016 -0.179388,0.04286 -0.09049,0.0127 -0.176212,0.0127 -0.169863,0 -0.315913,-0.05556 -0.14605,-0.05715 -0.254,-0.166688 -0.10795,-0.111125 -0.169862,-0.27305 -0.06191,-0.163512 -0.06191,-0.377825 0,-0.166687 0.05398,-0.312737 0.05398,-0.147638 0.153988,-0.255588 0.1016,-0.109537 0.246062,-0.173037 0.14605,-0.0635 0.328613,-0.0635 z m 0.0079,0.280987 q -0.17145,0 -0.268287,0.09684 -0.09684,0.09684 -0.123825,0.274637 h 0.739775 q 0,-0.0762 -0.02222,-0.142875 -0.02064,-0.06826 -0.0635,-0.119062 -0.04286,-0.0508 -0.109538,-0.07937 -0.06509,-0.03016 -0.1524,-0.03016 z"
           style="font-weight:bold;font-family:Lato;-inkscape-font-specification:'Lato, Bold'"
           id="path497" />
        <path
           d="m 42.747466,48.423092 v -1.628775 h 0.230188 q 0.06032,0 0.08414,0.02222 0.02381,0.02064 0.03175,0.0762 l 0.02222,0.18415 q 0.07779,-0.14605 0.182563,-0.2286 0.104775,-0.08414 0.24765,-0.08414 0.112712,0 0.180975,0.04921 l -0.0254,0.293687 q -0.0079,0.02858 -0.02381,0.04127 -0.01429,0.01111 -0.03969,0.01111 -0.02381,0 -0.07144,-0.0079 -0.04604,-0.0079 -0.09049,-0.0079 -0.06509,0 -0.115888,0.01905 -0.0508,0.01905 -0.09208,0.05556 -0.03969,0.03493 -0.07144,0.08573 -0.03016,0.0508 -0.05715,0.115888 v 1.0033 z"
           style="font-weight:bold;font-family:Lato;-inkscape-font-specification:'Lato, Bold'"
           id="path494" />
        <path
           d="m 49.091114,45.924367 c -0.02222,-0.0635 -0.04762,-0.07937 -0.111125,-0.06032 -0.0127,0.0032 -0.02223,0.0095 -0.03493,0.0127 -0.0254,-0.02858 -0.0508,-0.05715 -0.07937,-0.09525 -0.05398,0.0381 -0.104775,0.07303 -0.1524,0.111125 -0.06033,0.05398 -0.12065,0.10795 -0.174625,0.168275 -0.3302,0.352425 -0.65405,0.7112 -0.987425,1.06045 -0.180975,0.193675 -0.371475,0.377825 -0.561975,0.561975 -0.06985,0.06985 -0.1524,0.130175 -0.254,0.180975 0,-0.04445 -0.0032,-0.08255 0.0032,-0.1143 0.01588,-0.09842 0.02858,-0.19685 0.05398,-0.295275 0.05398,-0.19685 0.09208,-0.40005 0.130175,-0.60325 0.02222,-0.10795 0.0381,-0.2159 0.04445,-0.327025 0.0095,-0.12065 -0.07303,-0.174625 -0.168275,-0.22225 -0.08255,-0.04127 -0.127,0.01588 -0.180975,0.05398 -0.02222,0.01588 -0.04127,0.0381 -0.06032,0.05715 -0.06668,0.06985 -0.130175,0.136525 -0.193675,0.20955 -0.08255,0.09208 -0.155575,0.1905 -0.23495,0.28575 -0.17145,0.206375 -0.3556,0.40005 -0.5334,0.600075 -0.12065,0.13335 -0.244475,0.269875 -0.3556,0.41275 -0.06668,0.0889 -0.13335,0.180975 -0.2159,0.26035 -0.08572,0.08255 -0.17145,0.1651 -0.26035,0.244475 -0.0095,0.0095 -0.01905,0.0127 -0.02858,0.02222 0.01588,-0.07937 0.04127,-0.149225 0.06985,-0.2159 0.23495,-0.56515 0.508,-1.11125 0.790575,-1.654175 0.03493,-0.06668 0.06985,-0.13335 0.12065,-0.187325 0.0508,-0.06032 0.05715,-0.1143 0.0127,-0.1778 -0.02222,-0.0127 -0.04445,-0.02223 -0.06985,-0.03493 l -0.03492,0.04762 c -0.04445,0 -0.0762,0.0032 -0.111125,0.0032 -0.02858,0.04763 -0.05715,0.09208 -0.07937,0.1397 -0.13335,0.257175 -0.269875,0.511175 -0.396875,0.771525 -0.212725,0.434975 -0.42545,0.873125 -0.57785,1.336675 -0.03493,0.104775 -0.06985,0.20955 -0.04128,0.320675 0.117475,0.08573 0.20955,0.0889 0.3175,0.0063 0.08573,-0.06667 0.168275,-0.136525 0.2413,-0.2159 0.2286,-0.2413 0.454025,-0.48895 0.67945,-0.7366 0.111125,-0.123825 0.22225,-0.244475 0.314325,-0.38735 0.02857,-0.04445 0.06032,-0.0889 0.09525,-0.127 l 0.409575,-0.434975 c 0.06985,-0.06985 0.13335,-0.14605 0.200025,-0.219075 0.0127,-0.0127 0.02857,-0.01905 0.05715,-0.0381 -0.02222,0.104775 -0.0381,0.19685 -0.06032,0.28575 -0.06033,0.276225 -0.123825,0.55245 -0.155575,0.83185 -0.0063,0.0635 -0.0063,0.127 -0.0032,0.187325 0.0064,0.117475 0.04763,0.155575 0.168275,0.1651 0.03175,0.03175 0.06985,0.0381 0.111125,0.02222 0.15875,-0.06032 0.301625,-0.1524 0.415925,-0.282575 0.06667,-0.07938 0.13335,-0.15875 0.225425,-0.2159 0.05398,-0.03492 0.0889,-0.09525 0.130175,-0.142875 0.0381,-0.04445 0.07303,-0.0889 0.111125,-0.127 0.07303,-0.0762 0.1524,-0.142875 0.22225,-0.219075 0.19685,-0.2159 0.390525,-0.434975 0.5842,-0.65405 0.03493,-0.04127 0.06033,-0.09525 0.09525,-0.13335 0.06033,-0.06667 0.127,-0.123825 0.193675,-0.187325 l 0.09842,-0.08573 c 0.0063,0.05715 0,0.104775 -0.01588,0.1524 -0.08573,0.254 -0.168275,0.511175 -0.257175,0.762 -0.0762,0.20955 -0.1524,0.415925 -0.23495,0.619125 -0.08572,0.2032 -0.123825,0.422275 -0.225425,0.619125 -0.0032,0.0032 -0.0032,0.0063 -0.0032,0.0095 -0.09525,0.288925 -0.193675,0.581025 -0.288925,0.873125 -0.155575,0.466725 -0.27305,0.942975 -0.37465,1.425575 -0.136525,0.644525 -0.257175,1.292225 -0.314325,1.946275 -0.02222,0.2286 -0.03493,0.460375 0.0095,0.6858 0.01588,0.08255 0.03175,0.1651 0.09843,0.22225 0.09207,0.0762 0.19685,0.104775 0.314325,0.06667 0.0032,-0.0032 0.0063,-0.0063 0.01588,-0.0127 -0.0064,-0.01905 -0.0095,-0.04127 -0.01588,-0.06032 -0.05398,-0.01588 -0.111125,-0.0127 -0.1397,-0.0762 l 0.111125,-0.0095 c 0,-0.0127 0,-0.01588 -0.0032,-0.01588 -0.0095,-0.0063 -0.01905,-0.0127 -0.03175,-0.01588 -0.06985,-0.02222 -0.117475,-0.06667 -0.1397,-0.142875 -0.0127,-0.06033 -0.0032,-0.117475 0,-0.1778 0.0127,-0.219075 0.02222,-0.441325 0.04127,-0.6604 0.0127,-0.1778 0.0032,-0.36195 0.07303,-0.5334 l 0.0064,-0.03493 c 0.0508,-0.282575 0.1016,-0.561975 0.155575,-0.84455 0.06032,-0.31115 0.123825,-0.6223 0.187325,-0.936625 l 0.0381,-0.231775 h -0.0064 c -0.04762,0.130175 -0.09208,0.26035 -0.1397,0.3937 0.0063,-0.13335 0.02857,-0.26035 0.08255,-0.377825 0.07937,-0.168275 0.136525,-0.346075 0.1905,-0.523875 0.0127,-0.04763 0.03175,-0.09525 0.04763,-0.142875 h 0.01588 l 0.01587,0.05398 0.600075,-1.660525 c 0.0095,-0.03493 0.01588,-0.06985 0.02222,-0.104775 -0.0095,0.0127 -0.0254,0.0254 -0.03175,0.04127 -0.0381,0.10795 -0.0762,0.2159 -0.117475,0.32385 -0.0127,0.03175 -0.04445,0.0635 -0.04445,0.09207 0,0.0381 -0.0254,0.05715 -0.03493,0.08255 -0.0127,0.0381 -0.02222,0.07937 -0.0381,0.117475 -0.02222,0.0635 -0.04127,0.127 -0.07303,0.18415 -0.06032,0.117475 -0.09842,0.244475 -0.14605,0.3683 -0.0095,0.03175 -0.0095,0.06667 -0.04445,0.09208 -0.0032,0.0032 0.0032,0.01905 0.0032,0.02857 l -0.07302,0.04763 c -0.02858,0.0762 -0.05398,0.1397 -0.08573,0.2159 -0.0095,-0.0889 0.05398,-0.33655 0.130175,-0.492125 l -0.01905,0.127 h 0.0063 l 0.36195,-0.942975 c 0.117475,-0.314325 0.225425,-0.635 0.3556,-0.942975 l 0.0254,0.0095 c -0.01905,0.0635 -0.0381,0.123825 -0.06032,0.187325 -0.04762,0.127 -0.09208,0.254 -0.142875,0.377825 -0.01588,0.0381 0.0032,0.0635 0.0254,0.08573 0.0095,-0.0127 0.01905,-0.02222 0.02222,-0.03493 0.07937,-0.212725 0.161925,-0.42545 0.23495,-0.638175 0.05398,-0.15875 0.09843,-0.3175 0.142875,-0.479425 0.02222,-0.09208 0.02222,-0.1905 -0.0095,-0.282575 z m -1.8542,1.768475 c 0.0889,-0.0762 0.17145,-0.142875 0.250825,-0.20955 l 0.01905,0.02222 c -0.07303,0.0762 -0.13335,0.17145 -0.269875,0.187325 z m -0.6604,0.20955 c 0.03492,0.02222 0.0635,0.04127 0.09842,0.06668 -0.04127,0.03492 -0.06668,0.03175 -0.09842,0.0095 z m 0.168275,0.05715 c 0.0064,-0.0508 0.03493,-0.0508 0.08255,-0.04127 -0.03493,0.01905 -0.06032,0.02857 -0.08255,0.04127 z m -2.2098,0.466725 c -0.0032,-0.03175 -0.0095,-0.0508 -0.0064,-0.0635 0.0381,-0.117475 0.09208,-0.2286 0.149225,-0.339725 l 0.01588,0.0095 z m 2.1463,-0.314325 -0.0095,-0.04445 c -0.02223,-0.0032 -0.04445,-0.0095 -0.07303,-0.01588 0.0762,-0.02222 0.127,0.0032 0.1778,0.05398 -0.03493,0.0032 -0.0635,0.0032 -0.09525,0.0063 z m 0.7493,5.27685 c -0.02222,0.0063 -0.0381,0.01588 -0.06032,0.0254 l -0.05398,-0.08255 c 0.07303,-0.01588 0.07303,-0.01588 0.1143,0.05715 z"
           style="font-family:Reey;-inkscape-font-specification:'Reey, Normal';fill:#ff6600"
           id="path491" />
        <path
           d="m 49.468939,47.610292 c 0.0635,-0.04445 0.123825,-0.09525 0.1905,-0.136525 0.117475,-0.07937 0.2413,-0.15875 0.36195,-0.23495 0.03493,-0.02222 0.0762,-0.03492 0.117475,-0.05397 0.0095,0.01905 0.0127,0.02857 0.01905,0.0381 0.0095,0.0095 0.02222,0.01587 0.03175,0.0254 0.01588,-0.0095 0.03175,-0.01588 0.04445,-0.02222 0.04127,0.06032 0.04763,0.0635 0.117475,0.03175 0.0381,-0.08572 0.01905,-0.155575 -0.04445,-0.219075 -0.0254,-0.0032 -0.05398,-0.0095 -0.08255,-0.0127 0.0032,-0.02222 0.0095,-0.0381 0.0127,-0.05398 0.01905,0.0064 0.03175,0.0127 0.04445,0.01588 -0.04127,-0.04762 -0.08573,-0.09208 -0.1524,-0.07303 -0.04127,0.0095 -0.07937,0.03175 -0.117475,0.0508 -0.0381,0.01905 -0.06985,0.04445 -0.10795,0.05398 -0.0889,0.02222 -0.174625,0.05715 -0.250825,0.10795 -0.212725,0.14605 -0.40005,0.320675 -0.568325,0.51435 -0.07937,0.09208 -0.149225,0.1905 -0.219075,0.2921 -0.05715,0.0889 -0.09208,0.1905 -0.09525,0.301625 -0.0032,0.05397 0.01587,0.09207 0.0635,0.111125 0.09525,0.0381 0.193675,0.05398 0.2921,0.0032 0.07937,-0.04128 0.15875,-0.07938 0.23495,-0.127 0.142875,-0.0889 0.28575,-0.180975 0.42545,-0.3048 -0.04445,0.01588 -0.07303,0.0254 -0.1016,0.0381 -0.0127,0.01905 -0.02857,0.03175 -0.05397,0.02222 -0.01588,0 -0.03493,0.0032 -0.04763,0.0063 0.0254,-0.04127 0.03175,-0.04445 0.0635,-0.03492 0.0095,-0.0032 0.01905,-0.0032 0.02858,-0.0032 l 0.27305,-0.193675 c -0.01588,0.03493 -0.02222,0.05398 -0.02857,0.06985 l -0.149225,0.2921 c -0.0095,0.01905 -0.0254,0.0381 -0.02222,0.05398 0.01588,0.0635 -0.01905,0.111125 -0.03493,0.168275 0.01588,0.0127 0.02857,0.0254 0.04127,0.0381 0.01905,-0.0095 0.03175,-0.01588 0.04127,-0.02222 l 0.0508,0.05715 c 0.02857,-0.05715 0.0508,-0.104775 0.07303,-0.1524 0.01905,-0.0381 0.03175,-0.07937 0.07303,-0.09842 -0.0032,-0.07938 0.05397,-0.130175 0.09842,-0.18415 -0.02222,0.06667 -0.05715,0.127 -0.09842,0.18415 -0.01905,0.0381 -0.03493,0.0762 -0.0508,0.1143 -0.0095,0.02857 -0.03175,0.06032 -0.0032,0.09525 0.0127,-0.02223 0.0254,-0.04128 0.03493,-0.06033 l 0.2667,-0.536575 c 0.0254,-0.04762 0.0508,-0.09525 0.06985,-0.14605 0.02858,-0.07937 0.05715,-0.15875 0,-0.238125 -0.04762,-0.03175 -0.07937,0.0127 -0.12065,0.02222 l -0.04763,-0.10795 c -0.02222,0.0127 -0.04445,0.01905 -0.0635,0.03175 l -0.155575,0.123825 c -0.20955,0.155575 -0.415925,0.31115 -0.6223,0.466725 -0.05715,0.04445 -0.117475,0.07937 -0.193675,0.12065 0.03175,-0.05398 0.04763,-0.09525 0.07303,-0.127 0.09208,-0.10795 0.17145,-0.225425 0.288925,-0.307975 z m 0.104775,0.381 -0.01905,0.02222 c 0,-0.0063 -0.0032,-0.0095 -0.0064,-0.0127 z m -0.377825,0.127 c -0.01588,0.0254 -0.02222,0.0381 -0.02858,0.0508 -0.0127,-0.0032 -0.0254,-0.0095 -0.04445,-0.01588 z m -0.1905,0.09843 c 0.01905,-0.0032 0.0381,-0.0064 0.05715,-0.0127 0.0095,0.0254 -0.0063,0.03175 -0.05715,0.0127 z"
           style="font-family:Reey;-inkscape-font-specification:'Reey, Normal';fill:#ff6600"
           id="path488" />
        <path
           d="m 50.93579,48.464367 c 0.0508,0.04445 0.09208,0.03492 0.117475,-0.0254 0.0095,-0.0254 0.01905,-0.0508 0.02222,-0.0762 0.04445,-0.2667 0.13335,-0.523875 0.225425,-0.78105 0.05397,-0.14605 0.111125,-0.2921 0.17145,-0.4445 0.1016,-0.0095 0.19685,-0.01905 0.288925,-0.0254 0.05715,-0.0064 0.1016,0.0095 0.13335,0.06032 0.0127,0.01905 0.0381,0.04127 0.05397,0.0381 0.02223,-0.0063 0.03493,0 0.0508,0.0127 0.0381,0.03492 0.07303,0.0254 0.10795,-0.0095 -0.0064,-0.01588 -0.0127,-0.02857 -0.0127,-0.04445 0,-0.01588 0.0063,-0.03175 0.0063,-0.04763 0,-0.0127 -0.0032,-0.02857 -0.0095,-0.0381 -0.08255,-0.1143 -0.1778,-0.206375 -0.32385,-0.225425 -0.04763,-0.0095 -0.09525,-0.01587 -0.149225,-0.02222 0.01588,-0.03175 0.0254,-0.06032 0.0381,-0.08572 0.09525,-0.180975 0.18415,-0.365125 0.282575,-0.542925 0.05715,-0.104775 0.130175,-0.206375 0.1905,-0.31115 0.01905,-0.03493 0.03493,-0.07937 0.0381,-0.12065 0.0032,-0.05715 -0.0381,-0.0889 -0.0889,-0.104775 -0.01588,0.01905 -0.03175,0.0381 -0.04762,0.05398 -0.01588,-0.0254 -0.03175,-0.04445 -0.0508,-0.07303 -0.02222,0.03493 -0.04127,0.05715 -0.05715,0.08573 -0.15875,0.288925 -0.314325,0.57785 -0.4699,0.866775 -0.02223,0.04127 -0.0381,0.0889 -0.05715,0.13335 0.0095,-0.0032 0.01905,-0.0095 0.02857,-0.0127 0,0.0032 0.0032,0.0032 0.0063,0.0064 l -0.03492,0.0381 c -0.04445,0.10795 -0.09843,0.206375 -0.225425,0.231775 -0.0127,0.0032 -0.01905,0.0127 -0.03175,0.01588 -0.0762,0.02857 -0.155575,0.05398 -0.231775,0.07937 0.06667,-0.05715 0.155575,-0.07937 0.22225,-0.149225 -0.01588,0 -0.0254,-0.0032 -0.03175,0 -0.1397,0.0508 -0.28575,0.09525 -0.422275,0.155575 -0.09208,0.04127 -0.187325,0.09525 -0.206375,0.2159 0,0.0032 -0.0063,0.0095 -0.0095,0.0127 -0.06032,0.10795 -0.05715,0.20955 0.02223,0.3048 0.02857,0.03175 0.05715,0.0635 0.08255,0.09842 0.05715,0.07937 0.117475,0.1524 0.1651,0.23495 0.06985,0.117475 0.1016,0.250825 0.09842,0.38735 0,0.04445 -0.0032,0.0889 0.05398,0.104775 l 0.03175,-0.02222 c 0.0064,0.0095 0.0127,0.01905 0.02222,0.0254 z m 0.02223,-0.59055 c -0.09843,-0.13335 -0.19685,-0.263525 -0.2921,-0.3937 0.05715,-0.09842 0.288925,-0.212725 0.50165,-0.24765 z m -0.4191,-0.333375 c -0.02223,-0.03175 -0.05398,-0.06032 -0.0127,-0.1016 0.03493,0.03493 0.02222,0.06985 0.0127,0.1016 z"
           style="font-family:Reey;-inkscape-font-specification:'Reey, Normal';fill:#ff6600"
           id="path485" />
        <path
           d="m 52.723317,46.530792 c 0.04127,-0.1016 0.0762,-0.200025 0.1143,-0.29845 0.0254,-0.05398 0.05715,-0.1016 0.0762,-0.155575 0.0762,-0.18415 0.1524,-0.37465 0.225425,-0.561975 0.03175,-0.08255 0.05715,-0.1651 0.08572,-0.244475 0.0127,-0.03175 0.01588,-0.05715 -0.01905,-0.07303 -0.07937,0.0095 -0.07303,0.09843 -0.136525,0.149225 0.0127,-0.0381 0.01905,-0.05715 0.02857,-0.07303 0.0254,-0.04445 0.0508,-0.08572 0.0762,-0.123825 0.02223,-0.03175 0.01588,-0.05715 -0.0095,-0.09208 -0.0254,0.06032 -0.04763,0.111125 -0.06985,0.17145 l -0.02857,-0.04762 c 0.0127,-0.04445 0.02857,-0.08255 0.04445,-0.127 -0.0254,0.01905 -0.04445,0.0381 -0.05398,0.06667 -0.06985,0.17145 -0.14605,0.3429 -0.212725,0.517525 -0.155575,0.390525 -0.301625,0.777875 -0.4572,1.1684 -0.1016,0.2667 -0.2159,0.530225 -0.32385,0.79375 -0.06985,0.174625 -0.1397,0.352425 -0.2032,0.5207 0.02222,0.09525 0.09207,0.09525 0.1524,0.117475 0.01905,-0.03493 0.0381,-0.07303 0.05715,-0.111125 0.0127,0.0063 0.01905,0.0127 0.0254,0.01588 l 0.0508,-0.07937 c 0.111125,-0.1778 0.2159,-0.36195 0.327025,-0.53975 0.08572,-0.136525 0.174625,-0.263525 0.288925,-0.377825 0.03493,-0.03175 0.06985,-0.06985 0.123825,-0.07303 0.0254,0.04445 0.0254,0.09525 0.01588,0.14605 -0.02222,0.111125 -0.0381,0.231775 -0.06985,0.346075 -0.04127,0.1524 -0.09207,0.307975 -0.136525,0.46355 l -0.05715,0.19685 c -0.03175,0.10795 -0.06667,0.2159 -0.104775,0.320675 0,0.0127 0.0032,0.0254 0.0063,0.05398 0.03175,-0.06985 0.06032,-0.127 0.09208,-0.193675 -0.0032,0.04445 -0.0032,0.06985 -0.0032,0.111125 0.01588,-0.04762 0.03175,-0.0762 0.0381,-0.10795 0.07303,-0.231775 0.142875,-0.46355 0.2159,-0.695325 0.05398,-0.174625 0.10795,-0.34925 0.1397,-0.530225 0.0064,-0.03493 -0.0032,-0.06985 0.03175,-0.09525 0.0032,0.0635 0.0095,0.130175 0.0063,0.193675 0,0.13335 -0.04445,0.263525 -0.08572,0.390525 -0.0127,0.04445 -0.04445,0.08573 -0.04127,0.13335 0.0032,0.06985 -0.03493,0.127 -0.0508,0.187325 -0.03175,0.104775 -0.06985,0.206375 -0.104775,0.307975 -0.02858,0.08255 -0.04445,0.17145 -0.09525,0.244475 -0.0254,0.03175 -0.0381,0.06667 -0.05398,0.1016 -0.0032,0.0095 0,0.02222 0,0.03493 0.0032,0 0.0095,0.0032 0.0127,0 0.01588,-0.02222 0.02858,-0.04445 0.04128,-0.0762 0.01905,0.02858 0.03492,0.04445 0.04762,0.07303 0.01905,-0.04445 0.03175,-0.0762 0.04445,-0.111125 0.03493,-0.1143 0.07303,-0.2286 0.104775,-0.3429 0.06985,-0.250825 0.136525,-0.504825 0.206375,-0.75565 0.02222,-0.09208 0.04127,-0.180975 0.05398,-0.27305 0.01587,-0.09208 -0.0095,-0.1778 -0.06033,-0.254 -0.02857,-0.0381 -0.0508,-0.04445 -0.09525,-0.0381 l -0.187325,0.03175 c 0.02857,-0.02858 0.04445,-0.0381 0.05715,-0.05398 -0.1397,0.02222 -0.219075,0.142875 -0.3429,0.225425 0.0095,-0.03175 0.0127,-0.04445 0.01587,-0.06033 0.06668,-0.17145 0.130175,-0.346075 0.19685,-0.517525 z m 0.3175,0.485775 c 0.03493,0.02222 0.0381,0.0381 0.0127,0.06667 -0.01588,-0.01588 -0.03493,-0.0381 -0.0127,-0.06667 z"
           style="font-family:Reey;-inkscape-font-specification:'Reey, Normal';fill:#ff6600"
           id="path482" />
        <path
           d="m 54.644192,48.070667 h 0.917575 v 0.352425 h -1.344613 v -2.295525 h 0.427038 z"
           style="font-weight:bold;font-family:Lato;-inkscape-font-specification:'Lato, Bold'"
           id="path479" />
        <path
           d="m 56.869868,48.423092 q -0.05556,0 -0.08572,-0.01587 -0.03016,-0.01746 -0.04763,-0.06826 l -0.03492,-0.115887 q -0.06191,0.05556 -0.12065,0.09842 -0.05874,0.04127 -0.122237,0.06985 -0.0635,0.02857 -0.136525,0.04286 -0.07144,0.01429 -0.15875,0.01429 -0.103188,0 -0.1905,-0.02699 -0.08731,-0.02857 -0.150813,-0.08414 -0.0635,-0.05556 -0.09843,-0.138113 -0.03492,-0.08255 -0.03492,-0.192087 0,-0.09208 0.04762,-0.180975 0.04921,-0.09049 0.161925,-0.161925 0.112713,-0.07303 0.300038,-0.12065 0.187325,-0.04762 0.466725,-0.05397 v -0.09525 q 0,-0.163513 -0.06985,-0.2413 -0.06985,-0.07937 -0.201613,-0.07937 -0.09525,0 -0.15875,0.02222 -0.06191,0.02222 -0.109537,0.0508 -0.04763,0.02699 -0.08731,0.04921 -0.0381,0.02222 -0.08573,0.02222 -0.04127,0 -0.06985,-0.02064 -0.02858,-0.02222 -0.04604,-0.0508 l -0.06985,-0.125413 q 0.280987,-0.257175 0.676275,-0.257175 0.142875,0 0.255587,0.04763 0.112713,0.04604 0.1905,0.130175 0.07779,0.08255 0.117475,0.198438 0.04127,0.115887 0.04127,0.254 v 1.0287 z m -0.585787,-0.244475 q 0.12065,0 0.207962,-0.04286 0.0889,-0.04445 0.173038,-0.13335 V 47.72777 q -0.17145,0.0079 -0.287338,0.03016 -0.1143,0.02064 -0.18415,0.05398 -0.06985,0.03334 -0.100012,0.07779 -0.03016,0.04445 -0.03016,0.09684 0,0.103188 0.06032,0.147638 0.06191,0.04445 0.160338,0.04445 z"
           style="font-weight:bold;font-family:Lato;-inkscape-font-specification:'Lato, Bold'"
           id="path476" />
        <path
           d="m 57.415969,48.423092 v -2.359025 h 0.392112 v 0.931862 q 0.09842,-0.104775 0.217488,-0.1651 0.12065,-0.06191 0.274637,-0.06191 0.141288,0 0.254,0.05556 0.1143,0.05556 0.193675,0.160338 0.08096,0.103187 0.123825,0.250825 0.04286,0.147637 0.04286,0.331787 0,0.198438 -0.04921,0.360363 -0.04921,0.161925 -0.141287,0.277812 -0.09049,0.1143 -0.219075,0.1778 -0.128588,0.0635 -0.28575,0.0635 -0.0762,0 -0.1397,-0.01588 -0.06191,-0.01429 -0.1143,-0.04127 -0.0508,-0.02699 -0.09525,-0.06509 -0.04286,-0.03969 -0.08255,-0.08731 l -0.01746,0.109538 q -0.0095,0.04128 -0.03334,0.05874 -0.02222,0.01746 -0.06191,0.01746 z m 0.7493,-1.349375 q -0.112713,0 -0.19685,0.05239 -0.08414,0.0508 -0.160338,0.144463 v 0.73025 q 0.06667,0.08255 0.144463,0.115887 0.07937,0.03175 0.166687,0.03175 0.09049,0 0.161925,-0.03175 0.07302,-0.03334 0.123825,-0.1016 0.0508,-0.06985 0.07779,-0.176212 0.02699,-0.10795 0.02699,-0.257175 0,-0.268288 -0.0889,-0.38735 -0.0889,-0.12065 -0.255587,-0.12065 z"
           style="font-weight:bold;font-family:Lato;-inkscape-font-specification:'Lato, Bold'"
           id="path473" />
        <path
           d="m 60.211553,47.111817 q -0.01588,0.0254 -0.03334,0.03651 -0.01746,0.0095 -0.04445,0.0095 -0.02858,0 -0.06191,-0.01588 -0.03175,-0.01588 -0.07461,-0.03493 -0.04286,-0.02064 -0.09843,-0.03651 -0.05397,-0.01588 -0.128588,-0.01588 -0.115887,0 -0.182562,0.04921 -0.06509,0.04921 -0.06509,0.128588 0,0.05239 0.03334,0.0889 0.03492,0.03493 0.09049,0.06191 0.05715,0.02699 0.128588,0.04921 0.07144,0.02064 0.144462,0.04604 0.07461,0.0254 0.14605,0.05874 0.07144,0.03175 0.127,0.08255 0.05715,0.04921 0.09049,0.119062 0.03492,0.06985 0.03492,0.168275 0,0.117475 -0.04286,0.217488 -0.04127,0.09842 -0.123825,0.17145 -0.08255,0.07144 -0.204787,0.112712 -0.12065,0.03969 -0.2794,0.03969 -0.08414,0 -0.1651,-0.01588 -0.07937,-0.01429 -0.153988,-0.04127 -0.07302,-0.02699 -0.136525,-0.0635 -0.06191,-0.03651 -0.109537,-0.07937 l 0.09049,-0.149225 q 0.01746,-0.02699 0.04127,-0.04127 0.02381,-0.01429 0.06033,-0.01429 0.03651,0 0.06826,0.02064 0.03334,0.02064 0.0762,0.04445 0.04286,0.02381 0.100012,0.04445 0.05874,0.02064 0.147638,0.02064 0.06985,0 0.119062,-0.01588 0.0508,-0.01746 0.08255,-0.04445 0.03334,-0.02699 0.04762,-0.06191 0.01588,-0.03651 0.01588,-0.07461 0,-0.05715 -0.03493,-0.09366 -0.03334,-0.03651 -0.09049,-0.0635 -0.05556,-0.02699 -0.128588,-0.04763 -0.07144,-0.02222 -0.147637,-0.04762 -0.07461,-0.0254 -0.147638,-0.05874 -0.07144,-0.03493 -0.128587,-0.08731 -0.05556,-0.05239 -0.09049,-0.128588 -0.03334,-0.0762 -0.03334,-0.18415 0,-0.100012 0.03969,-0.1905 0.03969,-0.09049 0.115888,-0.157162 0.07779,-0.06826 0.192087,-0.10795 0.115888,-0.04127 0.2667,-0.04127 0.168275,0 0.306388,0.05556 0.138112,0.05556 0.230187,0.14605 z"
           style="font-weight:bold;font-family:Lato;-inkscape-font-specification:'Lato, Bold'"
           id="path470" />
      </g>
    </g>
    <text
       xml:space="preserve"
       style="font-style:normal;font-variant:normal;font-weight:normal;font-stretch:normal;font-size:3.175px;font-family:Reey;-inkscape-font-specification:'Reey, Normal';font-variant-ligatures:normal;font-variant-caps:normal;font-variant-numeric:normal;font-variant-east-asian:normal;fill:#ff6600;stroke-width:0.264583"
       x="47.164127"
       y="40.705696"
       id="text381"><tspan
         sodipodi:role="line"
         id="tspan379"
         style="stroke-width:0.264583"
         x="47.164127"
         y="40.705696" /></text>
  </g>
</svg>
